<svg width="28" height="27" viewBox="0 0 28 27" fill="none" xmlns="http://www.w3.org/2000/svg">
<path fill-rule="evenodd" clip-rule="evenodd" d="M19.4399 26.7713H8.54653C3.83987 26.7713 0.666534 23.7433 0.666534 19.2246V7.66461C0.666534 3.14461 3.83987 0.104614 8.54653 0.104614H19.4399C24.1599 0.104614 27.3332 3.14461 27.3332 7.66461V19.2246C27.3332 23.7433 24.1599 26.7713 19.4399 26.7713ZM17.0265 12.4379H8.55987C7.99987 12.4379 7.55987 12.8913 7.55987 13.4379C7.55987 13.9979 7.99987 14.4379 8.55987 14.4379H17.0265L13.7199 17.7313C13.5332 17.9179 13.4265 18.1846 13.4265 18.4379C13.4265 18.6899 13.5332 18.9446 13.7199 19.1446C14.1065 19.5313 14.7465 19.5313 15.1332 19.1446L20.1599 14.1446C20.5332 13.7713 20.5332 13.1046 20.1599 12.7313L15.1332 7.73128C14.7465 7.34461 14.1065 7.34461 13.7199 7.73128C13.3332 8.13128 13.3332 8.75795 13.7199 9.15795L17.0265 12.4379Z" fill="white"/>
</svg>
